<svg xmlns="http://www.w3.org/2000/svg" width="200" height="218" fill="none" viewBox="0 0 200 218">
    <path fill="#fff" d="M30 0h170v170H30V0z" opacity=".124"/>
    <path fill="#fff" d="M160.587 218l9.413-9.414v2.829L163.416 218h-2.829zm-18 0L170 190.586v2.829L145.416 218h-2.829zm-18 0L170 172.586v2.828L127.416 218h-2.829zm-18 0L170 154.586v2.828L109.416 218h-2.829zm-18 0L170 136.586v2.828L91.416 218h-2.829zm-18 0L170 118.586v2.828L73.416 218h-2.829zm-18 0L170 100.586v2.828L55.416 218h-2.829zm-18 0L170 82.586v2.828L37.416 218h-2.829zm-18 0L170 64.586v2.828L19.416 218h-2.829zM0 218v-1.413L168.586 48H170v1.414L1.416 218H0zm0-19.413L150.586 48h2.828L0 201.415v-2.828zm0-18L132.586 48h2.828L0 183.415v-2.828zm0-18L114.586 48h2.828L0 165.415v-2.828zm0-18L96.586 48h2.828L0 147.415v-2.828zm0-18L78.586 48h2.828L0 129.414v-2.827zm0-18L60.586 48h2.828L0 111.414v-2.827zm0-18L42.586 48h2.828L0 93.414v-2.827zm0-18L24.586 48h2.828L0 75.414v-2.827zm0-18L6.586 48h2.828L0 57.414v-2.827z"/>
</svg>
